<svg width="30" height="32" viewBox="0 0 30 32" fill="none" xmlns="http://www.w3.org/2000/svg">
<path d="M24.053 5.96007C23.1585 6.01119 22.2612 5.93941 21.3863 5.74674C20.3309 5.38534 19.3438 4.84897 18.4663 4.16007C17.7156 3.62793 17.0028 3.0443 16.333 2.41341C16.049 2.14815 15.6749 2.00061 15.2863 2.00061C14.8977 2.00061 14.5236 2.14815 14.2396 2.41341C13.5876 3.02435 12.9021 3.59857 12.1863 4.13341C11.3034 4.83136 10.3126 5.38079 9.25295 5.76007C8.25634 5.98526 7.23255 6.06608 6.21295 6.00007C5.37809 5.9655 4.54574 5.88538 3.71962 5.76007C3.51775 5.73015 3.31191 5.74118 3.1144 5.79251C2.91688 5.84384 2.73172 5.93442 2.56996 6.05885C2.40821 6.18328 2.27316 6.33901 2.17288 6.51675C2.0726 6.6945 2.00914 6.89061 1.98629 7.09341C1.91962 7.73341 1.74629 9.40007 1.66629 11.2534C1.55417 13.1051 1.67061 14.9635 2.01295 16.7867C2.97834 19.8074 4.75388 22.5053 7.14629 24.5867C9.04787 26.3804 11.1098 27.9961 13.3063 29.4134C13.8949 29.8176 14.5922 30.0339 15.3063 30.0339C16.0203 30.0339 16.7176 29.8176 17.3063 29.4134C19.3863 27.9591 21.3318 26.3215 23.1196 24.5201C25.372 22.4234 27.04 19.7766 27.9596 16.8401" stroke="#151515" stroke-width="2.5" stroke-linecap="round" stroke-linejoin="round"/>
<path d="M13.666 14.6667L17.4793 18.48C17.5031 18.5059 17.5319 18.5265 17.5641 18.5406C17.5962 18.5548 17.6309 18.5621 17.666 18.5621C17.7011 18.5621 17.7358 18.5548 17.768 18.5406C17.8001 18.5265 17.829 18.5059 17.8527 18.48L28.3327 8" stroke="#6A983C" stroke-width="2.5" stroke-linecap="round" stroke-linejoin="round"/>
</svg>
