<svg width="17" height="16" viewBox="0 0 17 16" fill="none" xmlns="http://www.w3.org/2000/svg">
<path fill-rule="evenodd" clip-rule="evenodd" d="M7.8341 2.1266C7.88014 1.98057 7.97155 1.85303 8.09503 1.76249C8.21851 1.67195 8.36764 1.62314 8.52076 1.62314C8.67388 1.62314 8.82301 1.67195 8.94649 1.76249C9.06997 1.85303 9.16138 1.98057 9.20743 2.1266L10.4474 5.93993H14.4474C14.606 5.93394 14.7622 5.98003 14.8921 6.07116C15.0221 6.16229 15.1186 6.29345 15.167 6.44461C15.2153 6.59577 15.2129 6.7586 15.16 6.90824C15.1071 7.05787 15.0067 7.18608 14.8741 7.27327L11.6274 9.6266L12.8674 13.4466C12.9165 13.5921 12.9177 13.7495 12.871 13.8957C12.8242 14.042 12.7319 14.1695 12.6076 14.2596C12.4832 14.3497 12.3333 14.3977 12.1798 14.3965C12.0263 14.3954 11.8771 14.3452 11.7541 14.2533L8.50076 11.8733L5.2541 14.2333C5.1311 14.3252 4.98194 14.3754 4.82839 14.3765C4.67484 14.3777 4.52495 14.3297 4.40061 14.2396C4.27627 14.1495 4.18398 14.022 4.13723 13.8757C4.09049 13.7295 4.09172 13.5721 4.14076 13.4266L5.38076 9.6066L2.1341 7.25327C2.00148 7.16608 1.90106 7.03787 1.84818 6.88824C1.79529 6.7386 1.79284 6.57577 1.84121 6.42461C1.88958 6.27345 1.98611 6.14229 2.11604 6.05116C2.24597 5.96003 2.40217 5.91394 2.56076 5.91993H6.56076L7.8341 2.1266Z" stroke="#EBEBEB" stroke-width="1.5" stroke-linecap="round" stroke-linejoin="round"/>
</svg>
